<svg id="Layer_1" xmlns="http://www.w3.org/2000/svg" viewBox="0 0 414.1 492"><style>.st0{fill:#ecd8b3;stroke:#4c3a22;stroke-width:7;stroke-miterlimit:10}.st1{fill:#ffd65a}.st2{fill:#f4b52d}.st3{fill:#1d6ead}.st4{fill:#fff}.st5{fill:#fdec02}.st6{fill:none;stroke:#4c3a22;stroke-width:7;stroke-miterlimit:10}.st7{fill:#5f4d3b}</style><path id="Sheild" class="st0" d="M211 3.5h151s48.2 4.8 48.5 45.8 0 244.5 0 244.5-28.3 194.8-192.7 194.8S3.5 335.7 3.5 290.3V52S16 3.5 62.3 3.5H211z"/><path id="Sky" class="st1" d="M42 121v183l11.5 9L372 276.7V121H42"/><path id="Mountains" class="st2" d="M371 274.6l-85.5-34.3s-7.9-4.8-15.9-4.8-90.2 51.7-90.2 51.7-4.7 3.7-26.2-2.5-29.2-9.8-34-9.8-72.2 32-72.2 32l6.3 23.1H361l10-38v-17.4z"/><g id="Water"><path id="background" class="st3" d="M53 329h311.8s-34.1 114.3-155.9 114.3S53 329 53 329z"/><g id="Bubbles"><ellipse class="st4" cx="162.1" cy="413.8" rx="2" ry="2.2"/><ellipse class="st4" cx="335.9" cy="364.6" rx="1.4" ry="1.3"/><ellipse class="st4" cx="328.8" cy="368.6" rx="1.2" ry="1.3"/><circle class="st4" cx="328.2" cy="359.5" r="1.6"/><ellipse class="st4" cx="335.3" cy="355" rx="1" ry="1"/><ellipse class="st4" cx="333.5" cy="347.7" rx="2.4" ry="2.4"/><circle class="st4" cx="282.3" cy="393.1" r="1.4"/><ellipse class="st4" cx="225.5" cy="378.5" rx="2.4" ry="2.5"/><ellipse class="st4" cx="200.3" cy="384.4" rx="3" ry="2.9"/><ellipse class="st4" cx="189.4" cy="393.7" rx="2.6" ry="2.8"/><ellipse class="st4" cx="176.1" cy="389.6" rx="3.7" ry="3.5"/><ellipse class="st4" cx="163.9" cy="402.1" rx="2.4" ry="2.6"/></g><path id="swoosh" class="st4" d="M73 367h126s16.7 1.3 21.7-2 10-6.7 4-10-40.3-10.7-44.3-12.3c-4-1.7-5-2.3-4-4s32.1-.7 32.1-.7H361l.9-4H170s-10.6-.5-13.5 1.5-2.4 4.2 1.6 5.5 36.1 10.4 36.1 10.4 6.1 2.6 4.8 4.4-2.6 2.4-12.1 2.2-119.5-.1-119.5-.1L73 367z"/></g><g id="Fish"><path id="BlueFish" class="st3" d="M274.2 281.7s2.8-8.5 5-13.2 6.3-13 7.5-14.2 1.4-2.1 2.8-2.4c1.9-.4 3.4.6 4.4 2.6 1 2.1.8 5.4 1.8 7s2.1 3.7 2.8 3.7 1.6-.5 1.9-2.6.7-4.4 1.2-6.9c.6-2.5 2.3-2.3 2.9-2.3.4 0 2.1.5 3.5 4.1 1.4 3.6 4.8 11.1 5.6 14.4s1.7 7.3 1.7 9.9 1.4 7.9 1.6 11.1 1 9.4 2.1 12.2 3.9 9.4 4.6 12.4.9 5.4-.4 6.2-3.4 2.2-5.1.9-.3-2.5-.2-3.2c.1-.7.5-1.8 0-1.7-.5.1-1.8-.9-.5-2.5.6-.8-.1-2.3-.5-2.5s-1-.4-.9-1.3.5-.2.9-1c.4-.7-.1-.8-.6-1.5-.5-.6-1-1.8-.6-2.1.4-.4.7-1.5 0-1.5-.7-.1-1.3-.4-1.8.5-.5 1-.4 1.9-.1 2.5.3.5.5 2.4.3 3.1-.2.6.5 1.1.4 1.7 0 .6-1 1.4-.3 1.8s.4 1.8-.1 2.2c-.5.4-.8.9-.8 2.9s-.8 12.9-1.4 13.4-1.5 1.1-1.2 2 .6 2 .9 2.3c.4.2 1.1 2.3.3 2.3s-2.7.4-2 .8 1.4.6.4.9-2.1 1-1.6 1.5 1.2.8 1.1 1.4 0 2.7-1 2c-1-.6-.6-1-.9-1.6s-1.1-.9-1.1 0 1.1 2 .3 2.6c-.9.6-2.7 0-3.1-.5s-.9-1.8-.2-2.2c.7-.4 1-1.4.5-1.9s-.5-1.1-.3-1.7.7-1.6 0-1.6-1.4.4-1.3 1.4-1.4 1.4-2 .4-.7-2.5.2-2.9 1.9-1.6 1.3-2.5-2-1.4-2-2.6-.3-2.5.5-2.5 1.7-.9 1.4-1.9c-.3-1-.5-1.1-1-1.6-.4-.4-1.3-.7-1.3.2 0 .9.4 1.6.1 2.1s-.3 1.3-.9 1.5-1.8.6-1.8-.9.1-1.6.5-1.8.5-.9 0-1-3.4.1-3.3-.6-1-1.2-1.1-2 2-.7 1.8-1.7c-.2-.7-.7-3.8-1.5-6.3s-4.6-5.7-4-8.2c.3-1.1-.8.2-1 1.6s-1.7 2-1.3 2.7 1.6.4 1.9 1.5c.4 1.1-1.4 1.7-2 1.8-1.2.1-1-.7-.8-1.9.1-.7-1.2.7-1.8 1-.6.3-.1-2-.7-2.4-.1-.1-.6.2-1 .8s-1-.5-1.9-.4c-.7 0-1.5 0-1.4 1s.7 2 0 2.7c-.7.6-2.3 1.6-1.9 2.5.3.6.2-.5 2-.6s1 1.2 2.2.3c.7-.6 1.6 0 1-.5-2.8-1.8-1.8-2.9-1.1-3.2.6-.2 2.6 1.6 2.9 2.3.3.7.8 2.7.6 3.2s-.2.4-2.1.6c-1.9.1-1.6 0-2.2 1.7s-4.3 1.7-4.5 2.3c-.2.6-.5.8.1 1.4s.9 1.4.5 1.9c0 0-1.2 0-1.3.9-.1 1 .5 4.8 0 5.4s-2.5.9-2.1 1.4 1.1.6 1.1 1.4-.6 1.2-.8 2.5c-.3 1.3.4 3.5 0 4.2s-1.4.9-1.6.7c-.3-.3 0-1 .2-1.8s.2-1-.5-1.1c-.7-.2-1.8-.1-1.6 1.1.2 1.1-.2 2.5.7 2.8.8.3 2.1.1 1.6.6-.4.5-1.5.2-1.7.8-.2.6.4 2.8-.2 2.9s-.9-.9-1-2c-.1-1-1.3-.9-1.3-.2s-.7 1.5-.7 2 2 .7 2 1.2-1.2 3.1-2 3.6-.8.9-.9 1.6c0 .6-.4 1.5-1.4.2-1.1-1.2-1.3 2.7-1.2 3.4 0 .8.8 1.9-.6 3.6s-1.2 1.2-.9 1.9c.3.6-.2 1.3-.8 1.5s-.8.3-.8.8 1.3.8.7 1.6-1.3.1-2.4.8-1 2-2 2.9-.1 1.8-1.2 2.2-2.5 1.2-2.5 0 .1-1.9 1.4-3.2 2.7-2.5 2.7-3.6-.3-1.9 1-2.1 1.8-2.4 1.4-3.7-.3-1.6.7-2.6 0-1.8.6-2.2.8-1.4 1.6-2.2 1.2-2.6.5-3.2-1.5-1.8-.8-2.2 1.6.5 2.1.1-.5-1 0-1.1 1.8-.5 1.4-.9-2.3-.1-2.4-.7-.2-2 .9-1.9 1.1-.7 1.1-1.8-.2-1.9-1-2-1.6-1.5-.3-1.4 1.8-.4 2.4-.8 1.2-1.3.7-1.5-.8.6-1.2.3-1.2-.7-.7-1.4 1-1 1.3-.4 1.5.3 1.3-.5-1.3-1.5-.4-1.9 1.8-1.7.6-1.7-1.1-.4-.5-.9 1.9-1.8 1.7-2.3-.9-3.8-.9-5.4-.4-13.3.9-23.8 4.2-21.3 4.2-21.3z"/><path id="WhiteFish" class="st4" d="M152.4 430.8s8.3-.2 11.5-1 5.7-2.9 5.7-4.2 0-3.1-1-3.1-1.6 1.5-1.6 1.8-2.3-.1-2.1-2.8 2-3.9 2.8-4.1 2.6-.4 3.6.4 2.2 1.8 2.2 2.6c-.1.8-.1 1.8-.8 2.3s.2 1.3 1.4.9 1.5-1 1.9-3 1.4-2 2-1.6 2 1 2 1.8c-.1.9 0 1.5.9 1.2.8-.3 1.9-1.5 1.5-2.1s-1.2-2.1-.2-2.6c.9-.5 2.1-.5 2.7.5s1 2.4 1.8 2c.8-.3 2.7-1.6 2.1-2.6-.6-1-1.3-1.1-2.3-1.2s-.8-1.8-.5-2.5 1.6-1.5 2.9-1 2.7 1.6 3.3 3 .9 3 2.2 3 3.2.7 3.6-.2c.3-1-1.9-4.8-3.5-6.2-1.6-1.5-5-7-4.9-8.9s.9-3.1 1.8-3.7c1-.7 6.1-1.4 7.8-1.4s11.3.3 14.5 1.3 3.3 1.5 5.7 1.2c2.3-.3 8.6-2.3 10.1-3.3s1.7-1.7 1.5-2.2-1.8-1.7-.7-2.5 5-1.4 7.1-2.9 9.4-7.1 13.9-13.6 7-10.3 6.8-12.1-3.2-10.3-3.2-13.3c0-2.9-.2-5.2.5-6.7s10.7-9.7 11.2-10.4.8-1.5 1.1-2 .8-1.1 1.2-.7.8 1.5.4 2.3-1.9 1.7-1.5 2 1.3-.1 1.5.3.3 1.6-.2 1.8-1.2.9-1.2 1.6.2 1-.5.9-1.6 0-1.3.4 1.1.8 1.6.6 1 .5.5.9-.9.4-1.8 1.2-1.8.2-1.9 1 1.4.3 1.6 1 .4.5.4 1.4-.5 2.5-1 2.7-1.6 1.1-.4 1.3c1.2.2 1.6 1.1 1.3 1.3s-.9.9-1.8 1.1c-.9.1-1.9.9-1.4 1.5s1 1.5.9 2.2c-.1.6-.6 2.9-1.2 4s-1.9 3.3-2.4 3.6-.6.6-.5 1.3.6 2.7.1 3.2-1.9 1.1-2.2 1.8c-.2.7-.3 2.2-1.2 3.3-.9 1.1-1.3 2.5-2.1 3.1-.9.6-1.1 1.2-.7 1.6s1.2.7 2-.1c.8-.8.7-2 1.2-2.8s1.2-.5 1.6-1c.5-.5-.2-1.5.2-1.6.5-.1 2.2 0 2.3-.6 0-.6-.6-2 .2-2.3.8-.4 1.9.4 2.1-.2.3-.6-1-1.6-.4-2.5s2-1.5 2-2.3-.8-3.1-.6-3.8c.2-.7.3-1.4.8-1.4s.4.6.8 1 1 .2 1-1 .8-3 1.3-3.8c.6-.7 1.7-1.3 1.3-2s-1.6 0-1.6-.9c0-1 .2-1.9 1-2s.7 1 .9 1.4.9 1.1 1.1.3c.2-.8-.4-2-.1-2.4s1.2.3 1.8-.4.5-1.2-.2-1.3-1.8-.4-1.8-1.5.1-2.3.8-2.3 1.2 0 1.1.8-.1 1.1-.4 1.3-.4.8.8.8 1.1-1.6 1.1-2.5.4-2.8.8-3.3.6-1.2 0-1.9-.5-1 .1-1.8.4-4.3.8-5.6 1.1-.4 1.4-1 .7-1.8 0-1.9-.7-.8-.4-1.3 0-1.3.6-1.5 1.5.5 1.8 0-.5-1 0-1.4 1.9-.1 2-.6.8-.9 1.6-.8 1.2-.2 1.6 0 1.1-.2 1-1-.2-2.1-.9-2.8-1.2-1.9-1.9-1.9-1.5.1-1.2.8.2 1 1 1.3 1.4 1.2.9 1.2-.7-.2-1 .1-.2 1.1-.8.9-.9-1.1-1.5-1.1-.4.9-.9 1.2-2 .3-1.5-.9 1.1-2.1 1.8-2.1.7-1.8.4-2.5-.1-1.2.5-1.4 1.6-.4 1.9 0 .7.5.8.1.4-1.4.9-.9.7 1.1.6 1.8 1 .8 1.2.1 1-.8 1.1-.4.6.9 0 1.3-.4.7.3.9c.7.2.8-.8 1.4-.8s1-.2.5-.9-1.4-.4-1.7-1.5 0-1.2.5-1.7 1.1-1.6.5-2-.8.6-1.3.9-2.8.5-3.8.7-2.5.1-2.5-.5.7-1.2.5-1.5-2-.1-1.9-.7.3-1.6 1-1.9 2.2-.8 2.2.2-.9 1.1-.4 1.6.3.8 1.9 1 2.7.3 3.2-.4 1.2-1.1 2.1-.8c.9.2 1.6 1.9 1.3 2.7s0 1.2.5 1.1 1.8-.1 1.5 1 .2 1.4.8 1.6.8.9.4 1.5-.2 1.5.5 1.5 1.4.5 1.2 2.1-.8 3.5-.4 3.7 1.5.5 1.5 1 .2.9-.3 1.1-1.2-.1-1.5-.5-1.4-.1-.8.7-.1 1.4 1.2 1.4 2.2.3 2.6.8-.1 1-.6 1-.5 1.3-.1 1.9 1.1.8 1.8.3 1.2-1.2 1.1-1.9-.3-2 .3-2.1 1.1.3 1.5.8.9 2.2.5 2.5-1.6.5-1.7 1.3-.5 2.7.5 3.3 1.6.6 1.4 1.7-.4 1.9-1.2 2.3-1.1 1.1-.8 1.6 1.8 1.6 2.2 1.2.2-1.6.8-1.8 1.2.1 1.1.8-1.2 1.3-1 1.6 1.7.3 1.3.8.2 1.7-.4 1.9-1.9.6-2 1.3-.4 1.4-.2 2 .9 1.6 1 .6.5-2.2 1-1.7.6 1 .6 1.4.2 1.4-.2 1.6c-.4.2-1.6.7-1.4 1.2s.6 1.5 1.4.7c.7-.8 1.2-1.5 1.8-1.5.7 0 1.4-.1 1.8.1s.8.9.2 1.2c-.6.3-2 .6-2 1.2s-.4 1.7 0 2.2c.5.6.9 1 1.6.8s.9-.8.6-1.4c-.2-.5-1.5-.4-1.1-.8s1.7-1.7 2.2-1.7.9-.7.6-1c-.2-.3-1.1-.9-1.1-1.4 0-.4-.5-1.1-1-1.1s-1.3 0-1.3-.6c0-.7 1.1-.6.9-1.1s-.9-2-.2-2.1c.6-.1.9.9 1.1 1.8.1.9.5 1 1 1 .4-.1.7-.2.7-1.1 0-1-.5-1.1.1-1.5s1.2-.1 1-1 .1-1-.5-1c-.6-.1-.8 1.2-1.3.9-.6-.4-1.2-1.4-.7-1.9s1.4-.8 2-.6c.6.2 1 1 1.2.1.1-.8.8-2.7.1-3.6-.6-1-1.4-.8-1.4-1.8s0-2 .9-2.4c.9-.3.9-4.4.7-5.1-.2-.7-.5-9.3.7-10.2 1.1-.9.9-3.1.9-5.5s-.1-4.4-.5-5.1-.1-2.2.6-2.7 2.3 0 2.3.6-1 1.9-.5 2.4c.5.6 1.6 1.9 1.3 2.4-.4.5-1.5 1.3-.6 1.9s1.7 1 1.2 2.3c-.5 1.2-1.2 2.3-.4 2.6.8.3 1.7.9 1.2 1.6s-1.5 2.7-1.4 3.7c0 1-1.2 6.9-1 8.1s-.5 4.7-.8 7-1.7 7.7-1.8 10.2-.2 7.3.2 10.2 2 7.2 1.4 8.9c-.6 1.7-1.6 3.8-3.3 3.8s-4.2-.5-4.8-1.2-1.3-.8-2 .7-3 5-7.2 8.6-5.3 4.5-10.7 6.7-6.8 2-9.5 4.2-3.6 6.6-5.5 8.7-5 6.9-7.3 5.7-3-3.9-3.3-5.6-.9-1.8-2.1-1.8-3.5-.2-6.2 3.1-3.7 4.7-2.9 8.8 1.6 3.6 2 3.1-.8-3.2.5-4.7 1.8-2.3 3.3-1.8 3.1.8 2.4 1.6-3.2 1.2-2.3 2c.9.8 2.4 1.9 3.7.8s2.4-2.2 4.1-2.5 2.8-.5 3 .3.8 1.3-.3 1.5-1.6.7-1.2 1.2 3.2 1.5 4.6-1.3 1.7-3.9 3.2-3.2 2.6 1.2 2.7-.2-2.5-2.9-1.3-4.6 1.8-4.1 4.1-4.1 3.2.9 2.9 2.1-1.9 1.8-1.4 2.9 1 2.8 3 2.8 5-2 5-3.5-.5-3.3-1.3-5 1.6-5.8 3.5-6.3 4.8-.4 4.9 1.4-1.4 2.1-2.1 2.8.2 2.3 1.5 2.8 2.9-.1 3.8-1.5 2.1-2.9 1.1-4.2-1.7-3.4-1.1-4.9 1.9-3 3.5-2.5 0 2.9 1.1 3.6 3.6 1.1 4.4-1.2.5-4.6 3.4-7 4.3-1.3 4.2-.4-1.8 2.2-.8 2.8 2.2 1.1 2.8-.9 1.4-3.7 3.4-3.6 3.1 1.8 2 2.4-3.2 1.8-2.2 2.6.9 1.3 3 1.3 2.3-2.2 3-4 1.1-3 2.8-3.3 3.4 0 3.2 1.9-.2 2.8-1.8 3 1.6 3.2 1.6 3.2l-8.1 10.9-28 23-34 15.5-34.8 8h-33l-33.9-7.1-8.4-6.1z"/><g id="GillEyeLip"><path class="st4" d="M302.4 255.8s.8 0 .9 1c.1 1-.2 2.8-.3 4.1 0 1.4-.4 3.6-.6 4.8s.1 2.7-.5 2.9-1.7.7-2.3-.6 0-1.6.3-2.4 1.7-5.5 1.8-6.7-.1-2.2.1-2.6.6-.5.6-.5zm-2.7 44.8s5.3-.4 6.8-1.8 4.2-4.2 5.2-8.5 1-4.5 1.6-4.2 1.1 1.5 1.3 3.6c.3 3.2-.9 6.7-2.5 7.9s-4 3.1-6.6 3.7c-1.2.3-4.2.4-4.7.1s-1.1-.8-1.1-.8z"/><ellipse class="st4" cx="287.8" cy="271.7" rx="2.2" ry="2.6"/></g></g><g id="Splash"><path class="st3" d="M280.5 338.7s.5-.5.3-.6-1-.1-.8.2c.2.2.5.4.5.4zm-1.1-5.9s-1.3-.5-1.4-.2c0 .4 0 1.2.3 1.1s1.1-.9 1.1-.9zm22.4 12.8s-.7.5-1.1.5-1.8-.4-1.3 0c.6.4 1 .9 1.4.9s2.2-.8 1.9-1-.9-.4-.9-.4zm-3.8-3.4s.4.8-.4.8-.8-1.3-.3-1.2c.5.1.7.4.7.4zm-32.6-1s0-1.3.8-1.3c.8-.1 1 2.1.5 1.9s-1.3-.6-1.3-.6zm-2.1 2s-1.4-2.1-.4-1.9c1 .1.4 1.9.4 1.9zm-5.6 4.5s1.8.6 1.9 0-.4-1.6-.9-1c-.6.5-1 1-1 1zm1.2 4.8s-.4-1.2.4-.9c.8.3 1.4.9.5.9h-.9zm26.1 31.3s.4-.2.8 0c.3.2 1.3.9.6 1.2-.7.2-1.4-.6-1.4-.6v-.6zm1.8-4.1s.3-1.5-.4-1.2-.7 1-.6 1.2 1 0 1 0zm-74.4 27.1s.6-.4.3-.8-1-.5-1 0 .7.8.7.8zm3-4s-.2.7 0 .7 1 .8 1 .2c0-.6-.1-1.2-.6-1.1s-.4.2-.4.2zm-14.3 12s-.1.7.9.2c1-.4 1-.2 1.1-1s.6-1.5 0-1.4-1.5-.5-1.1-.8 2.1-.2 2.1.8.5 1.6 0 1.9-.7 1.1-1.4 1.2c-.7 0-2.2 0-2.1-.3 0-.4.5-.6.5-.6zm-.3-1.7s.2-1.3-.3-1.3c-.6 0-1 1.2-.6 1.8s.9-.5.9-.5zm8.2 6.9s-.3-1 0-1 1.2.3 1.1.8c-.1.5-.7 1.2-.9.7l-.2-.5zm-3 .2s-.6-2-.2-2c.4 0 1.4.1 1.4.8 0 .7.3 1.6-.3 1.7s-.9-.5-.9-.5zm9.5-14.5s-1-.6-.8-.8c.2-.2 1.1-.9 1.5-.4s1.1.8.6.8c-.6 0-1.3.4-1.3.4zm4-2s-.8-.4-1.3.1c-.5.6-.5 1.6 0 1.9s1.2-.2.9.5-.4 1.3 0 1.5c.3.2 2-.5 1.8-1.3s.6-1.7.8-1.5 1.5-.4 1.5.2.1 1.4.8 1.4 1.6-1.2.9-1.6-1.7-.3-1.7-1 .3-1.8-.5-1.7c-.8.2-1.3-.1-1.4.9 0 1-1.1 1.2-1.4.9l-.4-.3zm6.7-2.6s.2.5.7.7 1.4.1 1.4-.4-.6-.9-1-.9-1.1.6-1.1.6zm.7 3.6s.2.3.8-.4c.6-.7.6-1.6.2-1.7s-.8.1-1 .5 0 1.6 0 1.6zm6.5-5.5s1-.6.8-.9-.9-.8-1.4-.5-1 .4-.8 1c.1.6 1.4.4 1.4.4zm-3 1.7s-.8-.8-.6-1.2c.2-.4.6-.8.8-.2.2.6.4 1.3-.2 1.4zm5.6-5.4s-1.4-.4-1-.8 1.4-.7 1-.8c-.5-.2-1.5-.5-1-.8s2.3-.5 2.3-.2.2 1.6-.3 1.8c-.5.2-.2 1.1-.2 1.1l-.8-.3zm14.4-12.5s-.9-.4-.7-.9.3-.1.7-.5c.5-.4.2-.9.4-1s2 .3 2 0-.1-.8.3-.8c.5 0 .6-.5.5.2s.3 1.1-.6 1.3c-.9.3-1.6.2-2 .7s-.6 1-.6 1zm34.2-1.8s.2-.3.3-.5.9 0 .8.3c-.1.2-.5.5-.8.4l-.3-.2zm14.9-27.8s.6-.2.8 0 .6-.4.5-.4c-.3-.1-1.3.4-1.3.4zm-11.1-4.3c-.3-.1-.4-.5-.4-.5s.2-.6.4-.4.4.3.4.5c-.1 0-.4.4-.4.4zm8.4-9.9s-.3.6-.9.3c-.7-.3-.5-1 0-1 .6 0 .9.7.9.7zm-7.7-12.4s-1-.1-1 .4.1 1.1.3 1.2c.2.1.5-.4.5-.5s.2-1.1.2-1.1zm-2.5-6.1s.8-.6.2-.7c-.5-.1-1.4-.5-1 0 .4.4.8.7.8.7zm4.6.1s-.2-.3.2-.4c.3-.1.8.2.4.4-.4.3-.6 0-.6 0zm-1.4-.3s.5 1.1 0 1.1-1.3-.9-.7-1.1c.6-.2.7 0 .7 0zm1.4-1.5s-.2-.7-.5-.5-1.2.6-.9.9c.2.3.8.1.9 0s.5-.4.5-.4zm-1.2-2v-1c1 0 1-.5.7.3s-.7.7-.7.7zm-2.3 5.1s0 .9-.6.4c-.5-.5-.3-1.4.1-1.1s.5.7.5.7zm1.3 1.9c-.7 0-1.9.1-1.8.5s-.4.8.3.8 1.4.5 1.5 0 0-1.3 0-1.3zm-8.2 5.3s-.2-.9-.8-.7c-.5.2-1 .2-1.1.9-.1.7 0 1.1 0 1.1l.9-1 1-.3zm-.5 7.2s-1 1.1-1.2.6-.2-1.1.3-1 .9.4.9.4zm4.1-1.1s-.3-1 .4-.9c.7 0 1.3 0 .9.5-.3.4-1.3.4-1.3.4zm4.9-3.2s1.1.5.9 0-.9 0-.9 0zm-1.8-1.5s-1 .7-.3.7.3-.7.3-.7zm-6.1-2.7s-.8-1.2-.2-1.2c.5 0 1.4 0 1.2.3s-1 .9-1 .9zm-1.4 6.5s-1.2.6-1.2 0 .1-1 .8-.7c.6.2.4.7.4.7zm-2.1 2s-1.1.6-1 0 .2-1 .8-.8.2.8.2.8zm4.3-3.5s-2.3-.2-1.8.4c.6.7.7 1.1 1.4 1s1.2.2 1.2-.4c.1-.5-.8-1-.8-1zm.8-3.6s-.5-.5 0-.6.6-.5.8-.8c.2-.3 1.2-.3 1 .4-.2.7-.8.7-1.2 1s-.6 0-.6 0zm11.5 14s-.6-.4-.6-.7.6-.9.9-.9.6.8.4.8-.7.8-.7.8zm4.6 2s-.5 0-.3-.6c.1-.6 1-.5 1 0-.1.6-.7.6-.7.6zm-.9-7.7s.6-.7.6-1.3c-.1-.7.2-2-.3-1.9s-.5.7-.7 1 .2 1.5-.6 1-.9-1.6-1.3-1.8c-.5-.2-1.4.5-.9.9s1.2.6 1.1 1.2c-.2.6 0 .7.6.9.5.2.3.3.7.6s1.3.4 1.6 0-.8-.6-.8-.6zm-4.6 2.9s-1.2-.8-.9-1c.3-.2 1.5-.8 1.6-.3s.3.3.3.6c-.1.3-1 .7-1 .7zm-2.6 2s-.6-.6-.2-1.1.7-.4 1 0 .8-.7 1 0c.2.6.1 1.9-.4 1.6-.4-.3-1.4-.5-1.4-.5zm3.9 5.1s.8.5.9 0 .6-1.2.8-.8c.2.4.4.8 0 1.3s-1.4.8-1.9.5c-.5-.2-.5-.8-.4-1 .1-.1.6 0 .6 0zm-6.8-1.7s-.5-.8-.3-1 1.3-.2 1.3 0-1 1-1 1zm3.1 5.4c.8.1 1.1-.5.7-.8-.4-.2-1.4-.5-1.4 0s.7.8.7.8zm7.9-1s-.6-.7-.2-1.1 0-.1.6 0 1.8 0 .9.4-1.3.7-1.3.7zm-4.2 2.1s.2 0 .3-.5.8-.8 1.1-.4 0 .7-.5.8c-.6.2-.9.1-.9.1zm-6.6.5s-1.1-.2-1.2-.7c-.2-.5.7-.7 1.2-.6.6 0 .8.3.7.7-.2.2-.7.6-.7.6zm1.5 3s.2-1.2-.3-1.2-1.2.1-.7.6.1.8.5.8c.2 0 .5-.2.5-.2zm2.7-.5s-.9.3-1.2 0c-.3-.3-.3-1.2 0-1s.7.8.6.2.2-1 .6-.8c.4.3 0 1.6 0 1.6zm1.7-.8s.2.7-.3.9c-.5.2-.8.2-.4.6.3.3 1.4 1.1 1.4.5 0-.5.4-1.1 0-1.5s-.7-.5-.7-.5zm-3.3 12s1.3-.4 1-.7c-.3-.4-.4-.6-1-.4s-1.4.8-1 1c.3.1 1 .1 1 .1zm-3.4-.2c-.6-.2-.9-.5-.4-.8.4-.3 1.3-.6 1.5-.4s.6.3.4.8c-.2.4-.6.7-.8.6-.3-.1-.7-.2-.7-.2zm-2.4-.1s-.4-.5-.4-1-.3-1 .4-.9c.6 0 1 .3 1 .5s-.1.7-.3.9c-.3.3-.7.5-.7.5zm-43.8 40.8c-.4-.6-.9-.9-1.1-.8s-.8.5-.6.8.5.7.8.7.7.1.5.4.9.7.6.9-1.2.2-1.6.7 0 1.7.3 1.7 1.2-.1 1.4-.4c.1-.4.1-.9.5-.9s.7-.1.7-.8-.5-.9-.3-1.2c.1-.3.7-.6.7-1.3s.2-1.2-.3-1.3-1.3.1-1.2.4.7.9.2 1-.6.1-.6.1zm.2-3.4s-.9-.7-.4-1.4 1.1-1.1 1.8-.8 1.1.5 1 1.1.1 1.1-.7 1.2-1.7-.1-1.7-.1zm1.6-14.1s-.2-.5 0-.8.2.2.7 0 .2-1.4.5-1.3.7.3.7.1.9-1.1.9-.1.1 2-.7 2-2.1.1-2.1.1zm7.1 7.8s-.7-1.1-.5-1.6 1-1.1 1.3-1 1 .8.9 1.1c-.2.4-.7.6-.8.4s-.5-.3-.5.1.1 1 0 1h-.4zm15.3-5.8c-.6-.2-.9-.7-.8-.9s.3-.2.4-.5.6-.7.6-.3-.3.7.1.8c.4.1.6.1.4.4s-.7.5-.7.5zm-2.5.7s-.1-.5 0-.6.5-.1.6.1.1.6 0 .6c-.2 0-.6-.1-.6-.1zm-6.7 4.6s.6.1.6-.2c0-.4-.2-.8-.2-1 .1-.2.4 0 .7-.3s.4-.7 0-.8-.7.3-.9.2-.6 0-.5.3.2.6-.1.7-.2.5 0 .5.5.1.5.2-.1.4-.1.4zm2.2.5s.5-.1.5-.4-.2-.6-.4-.9-.6-.3-.6.2 0 .9.2 1 .3.1.3.1zm5-1.7s1 .1 1.3 0 1.2-.4 1.1-.7 0-1.1-.9-.9-1.8.9-1.9.5.6-1 .2-1.2-1 0-1.2-.2-.6-.7-.9-.2-.5.1-1 .5-.4.8-.1.9 1.3-.4 1.3.1-.3.9.2 1 1.9.2 1.9.2zm23.7-11.4s.6 0 .7-.4c0-.4.2-1.4 0-1.6-.2-.3-.5-1-.8-.7s-.6.5-.8.2c-.2-.2-.6-.2-.5.1.1.3.4.8.7.8s.5.2.4.6 0 1.1.3 1zm-2.4.9s-.8.4-.8-.1 0-.8.3-.7c.3.1.9.2.5.8zm5.2-2.7s-.3-.7-.1-.8c.2-.2.7-.2.8 0 .1.2.3.7-.1.8-.4.1-.6 0-.6 0zm-6.3-8.5c-.3-.1-.2.4-.6.5-.5 0-1.1.4-1.1 1s-.2 1.2.2 1.3c.4.1.9-.1.8.3s-.4 1.2.1 1.4c.5.1.4-.2.8-.2.4.1 1 .4.8 0-.1-.4-.6-.2-.7-.7s-.2-.8-.5-1.1c-.3-.3-.5-.9-.1-.9.3 0 1.1-.4.9-.7-.4-.4-.6-.9-.6-.9zm-2.8 10.2c-.3-.6-.4-.9-.1-1.2s.9.1.9-.5-.1-.9 0-1.4-.2-1.2.4-1.2.5.4.9.7c.4.3.4.9.1 1.2s-1.1.6-1.2 1.2c0 .5.2 1.5-.3 1.5s-.7-.3-.7-.3zm-2.2-3.8s-.1-.6 0-.8.7-.5.9-.3.7.5.5.8-.7.6-1 .5-.4-.2-.4-.2zm-1.4 7.1c-.5-.2-1-.9-1-1.6s-.1-2.4.2-2.7c.3-.3.3-.7.2-1s.3-.9.7-.9 1.4.2 1.4.8c0 .6-.2 1.6 0 1.8.2.3 1 .1.8.6s-.6 1.5-.2 1.7c.3.2 1.2 0 1.1.5s-.7.7-.9.7c-.2 0-.7 0-1-.5s0-1.2-.3-1.5c-.4-.2-.9-.1-.8.5 0 .6.2 1.4.1 1.6 0 .1-.3 0-.3 0zm21.2-14.8s-.7-.1-.7-.5-.3-.7.2-.8c.5 0 1.2.4 1.1.6-.1.4-.6.7-.6.7zm-6.6 1.7c-.2.1-.5.3-.7 0s.3-1 .7-1c.4-.1 1.2.1 1.2.4s-.4.6-.8.7c-.3 0-.4-.1-.4-.1zm1 1.6s-.4-.7 0-.7.8.4.8.2-.1-.7.2-.9.8-.1.8.1.2.5 0 1-.4.9-1 .8c-.5 0-.8-.5-.8-.5z"/><path class="st3" d="M298.4 374s.7.3.6.9c-.2.6-.4 1.2-1.1 1.4s-.9.8-1.1 1.4-.8.7-1.3.9-.5 1.1-1 1.3c-.5.2-.7-.2-1.1.5s-.5 1.5-1.1 1.2c-.6-.4-.9-1.1-.6-1.5.2-.4.9-.7.1-1.1-.7-.5-1.9-.2-2-.6s.2-.8-.5-.9-1.5-.8-1.8-1.4c-.2-.6-.9-1.1-.6-1.4.3-.2 1.3 0 1.3-.8 0-.7-.7-1.7-.1-2 .6-.4 1.7-.1 1.7.3s-.5 1.1-.2 1.4-.4 1.1-.1 1.3 1.2.4 1.2.9-.2.9.3 1.2c.5.3 1.2.5 1.4.8.2.3.3.8.5 1s1 .4 1.1-.2.4-1.2 1-1.3c.5-.1.9-.5 1-.9 0-.3.8 0 .8-.7.1-.7-.2-1.4.2-1.6.4 0 1.4-.1 1.4-.1zm-.1-8.5l-.3.9c-.1.3 0 .9.3 1s1 .2 1.1 0 0-.3-.4-.6.1-.6-.1-.8-.6-.5-.6-.5zm1.9 0s.6 0 .6-.2 0-.7-.5-.7-1.1-.3-1.3.1c-.3.4-.2.6.1.8s1.1 0 1.1 0zm1.4.9s-.6.1-.6.4-.5.6 0 .9 1 .3 1 .7.4 1.2.2 1.4-.4.8-.9.8-1.3.7-1.2 1.1.5.7 1.1.5 1.3-.2 1.5-.8.5-1.8.2-2 .1-.5.2-.9-.2-.9-.5-1-.6-.1-.6-.4-.4-.7-.4-.7zm.1-2.3s.7 0 1-.4.2-1 .6-1.1 1.2-.1 1.2.5.7.2 1 .5.9.9.5 1.4-.9.1-1.3.4.5 1.3-.1 1.3-1.6-.4-1.6-.9-.5-.6-1-.7-.3-1-.3-1zm7.7 6.1c-.7-.5-1.2-1.1-.7-1.4s.5-1.6.3-2.3c-.2-.7-.2-2.1.2-2.5s.9-.8.9-1 .7-1 .9-.2.6 1.4.6 1.4-.2.7-.7.8-.6.7-.2.8 1.2.7.5.9-.9.6-.4.9 1.2.9 1.2 1.4-.6.9-1 .8-.5.2-.8.5-.8-.1-.8-.1z"/></g><path id="Sun" class="st5" d="M192 121s-3.8 46 21 65.1c25.9 20 37.8 21.2 49.2 20.9 11.4-.3 33.8-4.8 42-11.3s23.5-19.8 28-30.8 8.5-25.4 7-35.6-1.2-8.3-1.2-8.3H192z"/><path id="Innersheild" class="st6" d="M42.5 120.5h330V289s-19 153-158 153-172-123.5-172-148V120.5z"/><g id="Text"><path class="st7" d="M50.1 377.3c-.2.2-.8.4-.8.6 0 .4.2.8.4 1.2 1.5 2.8 3.1 2.8 5.5 2.1.4-.2.8-.2 1.2-.4.6-.2 1.2-.6 1.6-1 1.6-1.5 2.2-2.9.9-5.3-.2-.2-.4-.8-.8-1-.2-.2-.6 0-.8.2l-7.2 3.6zm-4.5-3.8l.8-.4c.2.4.4 1 .8 1.4l.2.2h.2c.2 0 .4-.2.6-.2l7.6-4.2c.2-.2.4-.2.2-.6 0-.4-.2-.8-.4-1l-.2-.4.8-.4 3.2 6 .8 1.6c.4 1 .8 1.6 1.1 2.6.2.8.2 1.8.1 2.4-.4 1.6-1.6 2.9-3 3.5-1 .4-2 .9-3 .9-1.4 0-2.8-.5-3.9-1.7-1-1-1.7-2.4-2.5-3.6l-3.4-6.1z"/><path class="st7" d="M53.7 386.6l.8-.4c.4.4.9 1.6 1.5 1.4.2 0 .4-.2.6-.2l7.2-4.8.2-.2c0-.2.2-.2 0-.4-.2-.6-.6-1-.8-1.4l.8-.4 7.6 11.1-3.6 2.5-.6-.8c1.6-2.1 1.9-3.5 0-6.1-.2-.4-.6-.8-1-1-.2 0-.4-.2-.4 0-.2 0-.6.2-.8.4l-2.6 1.7c1.1 1.8 2.3 2 3.7 1.3l.6.8-4.8 3.4-.6-1.4c1.2-1 1.6-2.5.3-4.1l-3 2.1c-.6.4-1 .6-.4 1.4.2.4.4.6.6 1 1.7 2.6 3.3 2.9 5.9 2.3l.4.8-3.8 2.3-7.8-11.3zm9.2 13l.6-.6c.2.4.4.6.8 1 .6.6.8.4 1.2 0l7-5.6s.2-.2 0-.2v-.2c-.2-.4-.6-1-1-1.4l.6-.6 5.1 6.4c.2.2.4.4.4.6.8 1 1.4 2 1.7 3.4.2 1.2-.2 2-1.2 2.8-2.4 1.9-5.1-.7-6.7-2.9l-1.2-1.6-2.6 2.1c-.2.2-.4.4-.4.6v.2l.2.2c.2.2.4.4.4.8l.4.6-.6.6-4.7-6.2zm8.3.7c.4.4.4.6.6.8 1.4 2 2.7 2.6 4.5 1.2 1.4-1.2 1.4-2.2-.1-3.8-.2-.4-.6-1-1-1s-.6.2-.8.4l-3.2 2.4zm14 6l1.1 1.2-3.8 10.7c-.4 1-.3 1.2.5 2.2l-.6.6-4.9-5 .6-.6c.2.2.8.8 1.1 1 .4 0 .4-.2.6-.4l.7-1.9-3.6-3.7c-.6.2-1.2.3-1.6.7-.8.6-.1 1.6.5 2.2l-.6.6-4-4.1.6-.6c1.3 1 2.7.7 3.9.2l9.5-3.1zm-4.4 6.4l1.6-4.3-4.4 1.4 2.8 2.9zm11 7.9c.4.4.8.8 1.2 1 1.5 1.2 2.7 1.5 3.9.3 1-1.2.5-2.2-.7-3.4-.4-.4-.8-.6-1.2-.8-.4-.2-.8.2-1 .4l-2.2 2.5zm5.1-2.6l1 1c.8.8 1.7 1.6 2.1 2.6s.3 2-.3 2.6c-1.4 1.7-3.4.7-5.3-.6 1.1 1.4 1.3 2.6.5 3.8l-.4 1c-.2.4-.4.6-.4 1v.2c.6 1 1.6-.1 2-.5l.8.6c-.2.2-.4.4-.8.6-1.2.8-2.6.3-3.9-.7-.6-.6-1.1-1.2-1.3-2 0-.8.2-1.2.5-1.8l.6-.8c.8-1 1.4-1.9.1-3.2l-.6-.6-.4-.4-2.5 2.9-.4.4c-.2.4-.2.4.2.8l.8.8.4.4-.6.6-6-5.1.6-.6c.2.2.6.4.8.8.8.6.8.4 1.4 0l5.1-5.8c.2-.2.8-.8.8-1 0-.4-.4-.8-.8-1l-.4-.4.6-.6 5.8 5zm2.9 8l3-3.4 10.5 8.1-2.4 3.8-.8-.6c.8-1.4 1.2-3.6-.4-5.1-.2-.2-.6-.4-.8-.2-.2.2-.4.4-.4.6l-5.1 6.7c-.4.4-.4.6 0 1.2.4.4.8.6 1.2 1l-.6.6-6.5-4.9.6-.6c.4.4 1 .6 1.4 1h.6c.2 0 .4-.2.4-.4l5.1-6.5c.2-.2.2-.4.4-.6.2-.2-.2-.6-.4-.6-1.8-1.4-3.8-.2-5.1.8l-.7-.9zm15.8 8c.2-.2.4-.6.2-1-.2-.2-.8-.6-1-.8l-.4-.2.4-.8 5.5 3.3-1.1 7.9 6.2-4.8 5.5 3.3-.4.8-.6-.4c-.4-.2-.8-.6-1.2-.4s-.6.6-.8 1l-4.1 7c0 .2 0 .2-.2.2-.2.4.6.8 1 1.2l.4.2-.4.8-6.5-3.9.4-.8 1 .6c.2 0 .4.2.4.2h.4c.2 0 .2-.2.4-.4l4.5-8-9.4 7.2-.8-.6 1.4-11.6-3.7 6.5c-.8 1.2-1 2.2.7 3.2l-.4.8-4.9-2.9.4-.8c1.6 1 2.2.4 3-.7l4.1-6.1zm11.8 18.7l.4-.8c.6.2 1.6 1 2 .4.2-.2.2-.4.2-.4l3.6-7.7c0-.2.2-.2 0-.4 0-.2 0-.2-.2-.4-.4-.4-1-.6-1.4-.8l.4-.8 12.1 5.7-1.6 4-.8-.4c.2-2.6-.2-3.8-3-5.3-.4-.2-.8-.4-1.4-.4-.2 0-.4 0-.4.2-.2.2-.4.4-.4.8l-1.4 2.8c1.8 1 3 .4 3.8-.8l1 .4-2.4 5.1-1-.4c.6-1.4 0-2.8-1.8-3.6l-1.6 3.2c-.4.6-.4 1 .4 1.4.4.2.6.4 1 .6 2.8 1.4 4.4.8 6.1-1l.8.4-2 3.8-12.4-5.6zm15.7 7l.2-.8c1.8.6 2.2.2 2.6-1l2.4-7.1c-.2-.8-.8-1.2-1.6-1.6l.2-.8 4.9 1.6 4.9 9.9 1.6-4.7c.4-1.2.2-2-1.4-2.6l.2-.8 5.3 1.8-.2.8c-1-.2-1.8-.4-2.2.4l-.6 1.2-2.8 8.1-1.2-.4-5.9-11.9-2 5.9c-.4 1.4-.2 2 1.4 2.8l-.2.8-5.6-1.6zm20-1.4l1.4-4.2 12.9 3-.8 4.4-1-.2c0-1.6-.2-3.8-2.4-4.4-.2 0-.6 0-.8.2 0 .2-.2.4-.2.6l-2 8.3c-.2.6-.2.8.6 1 .4.2 1 .2 1.4.4l-.2.8-7.9-1.8.2-.8c.6.2 1.2.2 1.8.4.2 0 .4 0 .4-.2.2-.2.2-.4.2-.6l2-8.1c0-.2.2-.4.2-.6s-.4-.4-.6-.4c-2.2-.6-3.6 1.4-4.2 2.8l-1-.6zm31.5 6.4c-.2 1.2 0 2.6.4 3.6.4 1.2 1.4 1.8 3 2 2.4.2 3-1.8 3.4-3.2.2-.6.2-1.2.4-1.8.2-2 .2-5.5-3-5.7-3.4-.6-4 2.9-4.2 5.1zm-2.3 4c-1.2-1.2-1.8-3-1.6-4.4.2-1.6 1-3.2 2.6-4.2 1.4-1 3.4-1.4 5.5-1.2 2.2.2 3.8.8 5.3 2.2 1.2 1.4 1.8 3 1.8 4.7-.2 1.6-1.2 3.4-2.8 4.2-1.6 1-3.4 1.4-5.5 1.2-2.2-.5-4.1-1.3-5.3-2.5z"/><path class="st7" d="M205.7 471.6v-.8h1.8s.2 0 .2-.2v-9.3c0-.2 0-.6-.4-.8-.4-.2-.8 0-1.2 0h-.6v-.8h13.1l.2 4.4h-1c-.6-2.2-1.8-3.4-4.9-3.4-.6 0-1.2 0-1.6.2-.2.2-.2.6-.2.8v3.4c2.2 0 2.8-.6 3.2-2.2h1v5.9h-1c0-.4-.2-.8-.4-1.2-.6-1-1.2-1.4-2.6-1.4h-.2v3.6c0 .8 0 1 1.2 1.2h1.2v.8l-7.8-.2zm25.8-8.3l-.3-4.5 13.2-1.6.9 4.5-1 .2c-.4-1.4-1.7-3.5-3.9-3.4-.2 0-.6.2-.6.4v.8l1 8.3c0 .6.2.8.8.8.4 0 1-.2 1.4-.2l.2.8-8.1 1-.2-.8c.6 0 1.2-.2 1.8-.3.2 0 .4-.2.4-.4v-.6l-1-8.1c0-.2 0-.4-.2-.6 0-.2-.4-.2-.8-.2-2.2.3-2.9 2.5-3 4.2l-.6-.3zm14.1-6.2l7.5-1.7.2.8c-.2 0-1.4.4-1.8.6-.2.2 0 .6 0 .8l.7 3.3 5.3-1.3-.7-3.3c0-.2 0-.4-.2-.6 0 0 0-.2-.2-.2-.4-.2-1.6.2-1.8.2l-.2-.8 7.3-1.7.2.8-1.4.4c-.6.2-.2.8-.2 1.2l1.7 7.5c0 .4.2.6.2 1 0 .2.2.2.6.2.6 0 1-.2 1.6-.4l.2.8-7.5 1.7-.2-.8c.2 0 1-.4 1.4-.4.6-.2.2-1 .2-1.4l-.7-3.3-5.3 1.3.9 3.7c.2.4.2 1 .8.8.4 0 1.2-.2 1.4-.4l.2.8-7.5 1.7-.2-.8 1.2-.4c.2 0 .6-.2.6-.4s0-.6-.2-.8l-1.9-7.9c0-.4-.2-.8-.6-.8-.6 0-1 .2-1.6.4v-.6zm20.8 7.1l-.4-.8c.4-.2 1.8-.3 1.9-1.1 0-.2 0-.4-.2-.6l-2.6-8c0-.2 0-.2-.2-.4s-.2-.2-.4-.2c-.6 0-1 .3-1.6.5l-.4-.8 12.8-3.9 1.4 4.1-1 .3c-1.5-2.1-2.9-2.8-5.8-1.7-.4.2-1 .3-1.2.5s-.2.2-.2.4 0 .6.2.8l.8 3.1c1.9-.5 2.5-1.7 2.4-3.1l1-.3 1.7 5.6-1 .3c-.5-1.4-1.9-2.1-3.8-1.4l1 3.5c.2.6.3 1 1.2.9.4 0 .6-.2 1-.3 3.1-1 3.8-2.4 3.7-5.1l1-.1 1.2 4.3-12.5 3.5zm32.1-13.4l-.4-.8c1.7-.9 1.7-1.5 1-2.8l-3.7-6.5c-.8-.2-1.6-.1-2.2.3l-.4-.8 4.4-2.6 10.6 2.8-2.4-4.2c-.7-1.3-1.3-1.5-2.8-.6l-.4-.8 4.8-2.8.4.8c-.8.6-1.5 1.1-1.1 2 .2.4.4.8.5 1.2l4.3 7.5-1 .6-12.8-3.3 3.2 5.4c.7 1.3 1.3 1.7 3 .8l.4.8-5.4 3zm11.9-15.6l-2.5-3.7 10.7-7.8 2.9 3.4-.8.6c-1.2-1.1-3.1-2.4-5-1-.2.2-.4.4-.4.6.2.2.2.4.4.6l5 6.7c.4.4.4.6 1.2.3.4-.2.8-.6 1.3-1l.6.6-6.5 4.8-.6-.6c.4-.4.8-.8 1.3-1.2.2-.2.2-.4.2-.6s-.2-.4-.4-.6l-5-6.7c-.2-.2-.4-.4-.4-.6-.2-.2-.6 0-.8.2-1.9 1.3-1.2 3.6-.6 5l-.6 1zm16.8-3.9l-.6-.6c.4-.4 1.5-1.2 1.3-1.8 0-.2-.2-.4-.4-.4l-5.6-6.3-.2-.2h-.4c-.4.4-.8.8-1.3 1l-.6-.6 10.1-8.9 2.9 3.1-.8.6c-2.2-1.3-3.8-1.4-6.1.8-.4.4-.6.6-.9 1.2v.4c0 .2.4.4.6.6l2.1 2.3c1.5-1.2 1.7-2.6.8-3.8l.8-.8 3.9 4.2-1.3 1c-1.2-1.1-2.6-1.1-4.1.2l2.5 2.7c.6.6.8.8 1.4.3.2-.2.6-.4.8-.6 2.3-2.1 2.4-3.8 1.4-6l.8-.6 2.7 3.3-9.8 8.9zm12.1-20.4c.4-.4.6-.8 1-1.2 1.2-1.6 1.7-2.6.3-3.8-1.2-1-2.2-.6-3.5.7-.4.4-.6.8-.8 1.2-.2.4.2.6.4 1l2.6 2.1zm-2.5-5.4l1-1.2c.8-.8 1.6-1.6 2.7-2 1-.4 2-.2 2.6.5 1.6 1.4.7 3.5-.5 5.2 1.2-1 2.4-1.2 3.9-.5l1 .4c.4.2.6.4 1 .4h.2c1-.6 0-1.6-.4-1.8l.6-.8c.2.2.4.4.6.8.8 1.2.4 2.6-.7 3.8-.6.6-1.2 1.2-2 1.2-.8.2-1.2-.2-1.8-.6l-.8-.6c-1.2-.8-2-1.5-3.2-.1l-.6.6-.4.4 2.8 2.5.4.4c.4.2.4.2.8-.2.2-.2.4-.6.8-.8l.4-.4.6.6-5.2 6-.6-.6c.2-.2.4-.6.6-.8.6-.8.4-1 0-1.4l-5.8-5.2c-.2-.2-.8-.8-1.2-.8-.4 0-.6.6-1 .8l-.4.4-.6-.6 5.2-5.6zm-48 50.1l-.4-.9 1.2-.5c.7-.5.7-.8.3-1.4l-3.4-7.3c-.1-.3-.1-.3-.3-.4-.2-.1-.3-.4-.5-.3-.3.1-.6.3-.9.4l-.5.2-.4-.9 7.1-3.3.4.9-.6.3c-.4.3-.9.4-1.1.8-.1.2.1.3 0 .5s.1.3.2.5l3.6 7.4c.1.3.3.6.6.6l.3-.1c.3-.1.5-.2.9-.4l.4-.3.4.9-7.3 3.3zm63.3-49.7l-.8-.6.8-1c.4-.8.2-1-.4-1.4l-6.5-4.9c-.2-.2-.2-.2-.4-.2s-.4-.2-.6 0-.4.6-.6.8l-.4.4-.8-.6 4.7-6.3.8.6-.4.6c-.2.4-.6.8-.6 1.2 0 .2.2.2.2.4s.2.2.4.4l6.7 4.9c.2.2.6.4.8.2l.2-.2c.2-.2.4-.4.6-.8l.2-.4.8.6-4.7 6.3zm3.4-15.1c1 .5 2.5 1.1 3.5 1 1.2.1 2.2-.7 2.9-2 1.1-2.1-.4-3.4-1.7-4.3-.4-.4-1.1-.7-1.7-1.1-1.7-.9-5-2.3-6.4.6-1.2 3.1 1.7 4.9 3.4 5.8zm3.1 3.7c-1.6.5-3.4.6-4.9-.3-1.5-.7-2.6-2.3-2.9-4.1s0-3.8.9-5.5c1.1-1.9 2.4-3.2 4.2-3.9 1.8-.7 3.4-.6 4.9.3 1.5.7 2.6 2.5 2.9 4.3.3 2 0 3.6-1.1 5.5-.9 1.6-2.4 3.1-4 3.7zm5.4-18.7c.2-.4.4-1 .7-1.4.9-1.8.9-3-.6-3.9-1.4-.9-2.4-.1-3.1 1.5l-.7 1.4c0 .4.4.6.6.8l3.1 1.6zm-3.5-4.6l.7-1.4c.6-1 1.1-2 2.1-2.5.8-.6 1.8-.5 2.6-.1 1.8 1.1 1.5 3.3.6 5.3 1.1-1.4 2.1-1.7 3.7-1.5l1 .2c.4 0 .8.2 1.2.3h.2c.8-.8-.3-1.4-.7-1.9l.4-.8c.2.2.6.4.8.6 1.2 1.1.9 2.5 0 3.8-.4.8-1.1 1.4-1.7 1.5s-1.2.1-2-.1l-1-.4c-1.2-.7-2.2-.9-3.3.7-.2.2-.2.6-.4.8l-.2.6 3.4 1.8c.2 0 .4.2.6.2.4 0 .4 0 .6-.4.2-.2.4-.6.4-1l.2-.4.8.4-3.3 6.7-.8-.4c.2-.4.4-.6.4-1 .4-.8.2-1-.3-1.4l-6.7-3.7c-.2-.2-1-.6-1.2-.5-.4.2-.6.6-.9 1l-.2.6-.8-.4 3.8-6.6z"/><g id="TopText"><path class="st7" d="M46.1 73.5v-1.6h1.6c.5 0 .7 0 .9-.2l.2-.2s0-.2.2-.2V54.7c0-.5 0-1.4-.7-1.4-.7-.2-.9-.2-1.6-.2h-.9v-1.6h23.9l.2 8.1H68c-1.2-4.2-3.2-6.5-8.3-6.5-.9 0-2.1 0-3 .5.3.4.3.9.3 1.6v6.3c3.7.2 4.9-1.2 5.6-4.2h1.9v10.2h-1.9c0-.7-.2-1.2-.7-1.9-.7-1.4-2.3-2.1-4.6-2.1H57V70c0 1.6 0 2.1 2.1 2.1H61v1.4H46.1zm25.2 0v-1.6h1.9c1.6-.2 1.4-.9 1.4-2.1V54.1c-.2-.5-.2-.7-.7-.7-.7-.2-.9-.2-1.6-.2h-1.2v-1.6h14.1v1.6H84c-.7 0-1.4-.2-1.9.5-.1.1-.1.3-.1.6v16.2c0 .5 0 1.2.7 1.4h2.8v1.6H71.3zm15.8-8.4h2.3c1.4 3.7 4.6 7.2 9.7 7.2 2.1 0 4.2-1.6 4.2-3.5 0-1.4-1.6-2.8-3.5-3l-3-.5c-2.8-.5-4.2-.7-6.7-2.1-2.1-1.1-3.2-3.2-3.2-5.2 0-4.6 4.6-7.2 10.2-7.2 2.5 0 5.1.7 7.2 1.6l1.6-1.4h1.6l.2 7.6h-2.1c-1.4-3.7-3.7-6-8.6-6-2.1 0-4.2 1.4-4.2 3.2 0 1.6 2.1 2.5 3.9 2.8l2.1.5c5.6.9 10.4 2.5 10.4 7.9 0 2.1-1.2 4.2-3.2 5.3-1.9 1.2-4.6 1.6-7.2 1.6-2.8 0-5.8-.7-8.1-2.1l-2.1 1.9H87v-8.6h.1z"/><path class="st7" d="M109.1 51.5H123v1.6c-.5 0-2.3 0-3 .2-.2.5-.2.9-.2 1.6v6.9h8.6v-7.9c0-.2 0-.5-.2-.5-.5-.5-2.3-.5-2.8-.5v-1.6H139v1.6h-2.3c-.9.2-.9 1.4-.9 2.1v16c0 .5.2.7.7.7.9 0 1.4.2 2.3.2v1.4h-13.9v-1.6c.5 0 1.6 0 2.3-.2 1.2-.2.9-1.6.9-2.3v-5.6h-8.6v6c0 .7 0 1.9 1.2 1.9h2.1v1.9h-13.9v-1.6h1.9c.5 0 1.2-.2 1.2-.7s0-.9.2-1.6V55c0-.7.2-1.4-.7-1.6-.9-.2-1.6 0-2.5-.2v-1.6h.1v-.1zm45.4 14.1c0 1.4.7 3 1.6 4.2 1.2 1.2 2.3 1.9 4.2 1.9.7 0 2.1-.2 2.3-.7l-1.4-1.4c-1.9-1.9-2.5-3-3.9-5.1-.2-.5-.7-1.2-.9-1.6-1.2.4-1.9 1.3-1.9 2.7zm9.9-10.2c0-1.4-.9-3-2.8-3s-2.5 1.2-2.5 2.5c0 1.2 1.4 3.5 2.1 4.4.2 0 .5 0 .5-.2 1.8-.7 2.7-1.8 2.7-3.7zm1.2 5.8h9.5v1.6c-3 0-3.5 1.2-4.9 3.2-.7.9-1.2 1.9-2.1 2.8.7.9 2.1 2.1 3.5 2.1 1.6 0 2.5-1.4 2.8-2.5l1.6.2c-.7 3.2-2.3 5.3-6.5 5.3-1.9 0-4.2-.9-5.6-1.9-2.1 1.4-4.9 2.1-7.6 2.1-2.1 0-4.2-.5-5.8-1.6-1.4-.9-2.3-2.8-2.3-4.4s1.2-3.5 2.5-4.6c1.4-1.2 3-1.6 4.6-2.3-.9-1.4-1.4-2.8-1.4-4.4 0-3.7 3.2-5.8 7.4-5.8 1.6 0 3 .2 4.6.9 1.2.7 2.1 2.1 2.1 3.2 0 3-3.5 4.4-6.3 5.3 1.6 2.3 3.2 4.4 5.1 6.7.7-.9 1.9-2.1 1.9-3.2 0-1.4-1.9-1.6-3.2-1.6l.1-1.1zm16.2-9.7h11.8v1.6c-.5 0-1.2 0-1.6.2-.2.2-.2 0-.5.2-.2.2 0 .5 0 .7l.2.7 4.2 11.3 3-7.9-1.2-3.5c-.2-.7-.2-.9-.7-1.6-.2-.2-.7-.2-1.2-.2h-.5v-1.6H207V53c-.5 0-1.2 0-1.6.2-.2 0-.2.2-.5.2-.2.5 0 .9 0 1.2l3.9 11.1 2.8-8.1c.2-.9.7-1.9.7-2.8 0-1.4-1.9-1.9-3.2-1.9v-1.6h8.8v1.6h-.5c-1.9.5-2.5 2.1-3 3.5l-6.3 17.1h-3.7L200.1 61l-4.6 12.7h-3.7L184.6 55c-.2-.5-.2-.9-.7-1.4-.5-.9-.9-.7-1.9-.9h-.2v-1.2zm53.7 22v-1.6c.9 0 1.4 0 2.3-.2.9 0 .9-.9.9-1.6V55.4c0-2.5.2-2.5-2.8-2.8h-.5V51h13.9v1.6H248c-1.6 0-1.6.5-1.6 1.6v15.1c0 1.2 0 1.9 1.6 1.9.7 0 .7.2 1.6.2 3.7 0 5.6-2.5 6.7-6.7h1.9l-.5 8.3h-22.2v.5zm33.8-4c0 .7 0 1.4.5 2.1.7.5 1.2.5 1.6.5 5.8 0 6.3-2.5 6.9-7.2 0-.7.2-1.4.2-2.3 0-1.2 0-2.3-.2-3.5-.7-3.9-1.9-6-6.7-6-.5 0-1.4 0-1.9.5-.5.2-.2.9-.2 1.4v14.6h-.2v-.1zm-10.8 4v-1.6c.9 0 1.9 0 2.8-.2.2 0 .2 0 .5-.2.2 0 .2-.2.2-.5.2-.2 0-.7 0-1.2v-16c0-.5-.2-.7-.7-.9-.7-.2-1.4-.2-2.1-.2h-.7V51h15.2c1.9 0 4.4.2 6 .7 1.4.5 2.8 1.4 3.9 2.3 2.3 2.3 3.2 4.9 3.2 7.6 0 1.9-.5 3.9-1.2 5.6-1.2 2.1-3.2 3.9-5.8 4.9-2.1.7-6.3.7-8.6.7h-13v.7h.3zm91.7 0v-1.6c.9 0 3 .2 3.2-.7.2-.2 0-.7 0-1.2V53.8c-.2-.2-.2-.5-.7-.5-.9-.2-1.6-.2-2.5-.2v-1.6h23.6l.2 7.9h-1.9c-1.6-4.4-2.5-6.3-8.1-6.3-.9 0-1.6 0-2.5.2-.2.2-.5.2-.5.7-.2.5-.2.9-.2 1.6v5.8c3.5.2 5.1-1.4 5.6-4.4h1.9l.2 10.7h-1.9c-.2-3-2.1-4.9-5.6-4.6v6.7c0 1.4 0 2.1 1.6 2.1.7 0 1.2.2 1.9.2 5.6 0 6.7-2.1 8.3-6.7l1.9.2-.5 8.1h-24.1v-.2h.1zm-177.4-51h14.6v1.6c-1.2.2-2.5-.2-3.2.5-.5.2-.2.9-.2 1.4v10.2c0 1.2 0 3 .5 3.9.5 1.2 1.2 1.6 2.3 2.1 1.2.5 2.1.5 3.2.5 1.9 0 3.9-.5 5.1-2.1 1.2-1.4 1.2-3 1.2-4.9v-7.9c0-1.4 0-3.2-2.1-3.7-.5-.2-1.2-.2-1.9-.2v-1.4h10v1.6c-3.2 0-3.7 1.6-3.9 4.2v8.8c0 1.2 0 1.9-.5 3-.7 1.9-2.1 3.5-4.2 4.2-1.6.7-3.9.9-5.8.9-2.3 0-6.7-.5-8.8-1.6-2.3-1.4-3-3.5-3-5.8V25.3c0-.5 0-.7-.7-.9-.7-.2-2.5-.2-3-.2v-1.6l.4-.1zm32.4 14.9c2.3 0 4.2 1.9 4.2 3.9 0 2.1-1.9 3.9-4.2 3.9s-4.2-1.9-4.2-3.9c0-2.3 1.9-3.9 4.2-3.9zm-18.8 52.3h1.6c3.5 0 5.3-1.2 5.3-4.4 0-3-1.9-3.9-4.9-3.9-.9 0-.7 0-1.4.2s-.7 1.2-.7 1.9l.1 6.2zm6.7-10.3c2.1 0 4 .6 5.8 1.5 1.6.9 2.5 2.5 2.5 4.2 0 3.7-3.7 5.3-7.6 5.6 3.2.5 4.4 1.9 5.1 4.4l.2 2.1c.2.7 0 .9.5 1.6 0 .2.2.2.2.5 1.9.7 1.9-1.4 2.1-2.3h1.9c0 .7 0 1.2-.2 1.9-.7 2.5-3 3.5-6 3.5-1.6 0-3.7-.5-4.9-1.4-.9-.9-1.2-2.1-1.4-3.2v-1.9c-.2-2.5-.5-4.4-3.7-4.6h-1.4v7.6c.2.7.5.7 1.2.9h2.1v1.6h-13.9v-1.6h1.6c1.6 0 1.6-.5 1.9-1.9v-14c0-.5.2-2.1-.2-2.5-.7-.5-1.4-.5-2.3-.5h-.7v-1.6h13.9m11 .4h13.9v1.6c-.7.2-2.3-.2-3 .5-.2.5 0 .9.2 1.2l5.8 12.7 5.1-11.3c.2-.5.2-.7.2-1.2 0-1.4-2.1-2.1-3.5-1.9v-1.6h10v1.6c-2.5.2-3.7 2.3-4.6 4.2l-7.9 16.7h-3.9l-8.6-18.5c-.5-.9-.9-2.1-2.3-2.3h-1.4v-1.7zm66.5-.4h1.4l.2 8.8-1.9.2c-.9-3.2-3.2-7.4-7.9-7.4-2.1 0-3.5.5-4.6 1.9s-1.4 2.5-1.9 4.4c-.2 1.2-.2 2.5-.2 3.7 0 1.6.2 3 .7 4.6.5 1.4.9 2.5 2.1 3.5s2.8 1.4 4.4 1.4c4.4 0 7.2-3 7.9-6.7l2.1.5c-1.4 5.6-4.9 8.1-11.3 8.1-3.7 0-7.6-.7-10.4-3-2.3-2.1-3.5-5.3-3.5-8.3 0-3.2 1.2-6.5 3.9-8.8 2.5-2.1 6.7-2.8 10.2-2.8 2.5 0 4.2.2 6.3 1.4 0 0 .2.2.5.2l2-1.7zM126.7 93.6h2.3c1.4 3.7 4.6 7.2 9.7 7.2 2.1 0 4.2-1.6 4.2-3.5 0-1.4-1.6-2.8-3.5-3l-3-.5c-2.8-.5-4.2-.7-6.7-2.1-2.1-1.2-3.2-3.2-3.2-5.3 0-4.6 4.6-7.2 10.2-7.2 2.5 0 5.1.7 7.2 1.6l1.6-1.4h1.9l.2 7.6h-2.1c-1.4-3.7-3.7-6.3-8.6-6.3-2.1 0-4.2 1.4-4.2 3.2 0 1.6 2.1 2.5 3.9 2.8l2.1.5c5.6.9 10.4 2.5 10.4 7.9 0 2.1-1.2 4.2-3.2 5.3-1.9 1.2-4.6 1.6-7.2 1.6-2.8 0-5.8-.7-8.1-2.1l-1.9 2.1h-1.6l-.4-8.4zm93.6-20.1v-1.6h1.9c1.6-.2 1.4-.9 1.4-2.1V54.1c-.2-.5-.2-.7-.7-.7-.7-.2-.9-.2-1.6-.2H220v-1.6h14.1v1.6H233c-.7 0-1.4-.2-1.9.5-.2.2-.2.5-.2.7v16.2c0 .5 0 1.2.7 1.4h2.8v1.6l-14.1-.1z"/><path class="st7" d="M286.3 73.5v-1.6c.9 0 1.4 0 2.3-.2.9 0 .9-.9.9-1.6V55.4c0-2.5.2-2.5-2.8-2.8h-.5V51h13.9v1.6h-1.4c-1.6 0-1.6.5-1.6 1.6v15.1c0 1.2 0 1.9 1.6 1.9.7 0 .7.2 1.6.2 3.7 0 5.6-2.5 6.7-6.7h1.9l-.5 8.3h-22.2v.5h.1zm23.6 0v-1.6h1.9c1.6-.2 1.4-.9 1.4-2.1V54.1c-.2-.5-.2-.7-.7-.7-.7-.2-.9-.2-1.6-.2h-1.2v-1.6h14.1v1.6h-1.2c-.7 0-1.4-.2-1.9.5-.2.2-.2.5-.2.7v16.2c0 .5 0 1.2.7 1.4h2.8v1.6l-14.1-.1zm15.3 0v-1.6h1.6c.5 0 .7 0 .9-.2l.2-.2s0-.2.2-.2V54.7c0-.5 0-1.4-.7-1.4-.7-.2-.9-.2-1.6-.2h-.9v-1.6h23.9l.2 8.1h-1.9c-1.2-4.2-3.2-6.5-8.3-6.5-.9 0-2.1 0-3 .5-.5.5-.5.9-.5 1.6v6.3c3.7.2 4.9-1.2 5.6-4.2h1.9v10.2h-1.9c0-.7-.2-1.2-.7-1.9-.7-1.4-2.3-2.1-4.6-2.1h-.5V70c0 1.6 0 2.1 2.1 2.1h1.9v1.4h-13.9zm-54.7 28.2v-1.6c.9 0 3 .2 3.2-.7.2-.2 0-.7 0-1.2V82c-.2-.2-.2-.5-.7-.5-.9-.2-1.6-.2-2.5-.2v-1.6h23.6l.2 7.9h-1.9c-1.6-4.4-2.5-6.3-8.1-6.3-.9 0-1.6 0-2.5.2-.2.2-.5.2-.5.7-.2.5-.2.9-.2 1.6v5.8c3.5.2 5.1-1.4 5.6-4.4h1.9l.2 10.7h-1.9c-.2-3-2.1-4.9-5.6-4.6V98c0 1.4 0 2.1 1.6 2.1.7 0 1.2.2 1.9.2 5.6 0 6.7-2.1 8.3-6.7l1.9.2-.5 8.1h-24.1v-.2h.1zm-120.9 0v-1.6c.9 0 3 .2 3.2-.7.2-.2 0-.7 0-1.2V82c-.2-.2-.2-.5-.7-.5-.9-.2-1.6-.2-2.5-.2v-1.6h23.6l.2 7.9h-1.9c-1.6-4.4-2.5-6.3-8.1-6.3-.9 0-1.6 0-2.5.2-.2.2-.5.2-.5.7-.2.5-.2.9-.2 1.6v5.8c3.5.2 5.1-1.4 5.6-4.4h1.9l.2 10.7h-2.1c-.2-3-2.1-4.9-5.6-4.6V98c0 1.4 0 2.1 1.6 2.1.7 0 1.2.2 1.9.2 5.6 0 6.7-2.1 8.3-6.7l1.9.2-.5 8.1h-23.9v-.2h.1zm91.5-64.3c2.3 0 4.2 1.9 4.2 3.9 0 2.1-1.9 3.9-4.2 3.9s-4.2-1.9-4.2-3.9c0-2.3 1.9-3.9 4.2-3.9zm-27.6-1h2.3c1.4 3.7 4.6 7.2 9.7 7.2 2.1 0 4.2-1.6 4.2-3.5 0-1.4-1.6-2.8-3.5-3l-2.8-.7c-2.8-.5-4.2-.7-6.7-2.1-2.1-1.2-3.2-3.2-3.2-5.3 0-4.6 4.6-7.2 10.2-7.2 2.5 0 5.1.7 7.2 1.6l1.6-1.4h1.6l.2 7.6h-2.1c-1.4-3.7-3.7-6.3-8.6-6.3-2.1 0-4.2 1.4-4.2 3.2 0 1.6 2.1 2.5 3.9 2.8l2.1.5c5.6.9 10.4 2.5 10.4 7.9 0 2.1-1.2 4.2-3.2 5.6-1.9 1.2-4.6 1.6-7.2 1.6-2.8 0-5.8-.7-8.1-2.1l-2.1 1.9h-1.6l-.1-8.3zm17.2 65.3v-1.6h1.9c1.6-.2 1.4-.9 1.4-2.1V82.3c-.2-.5-.2-.7-.7-.7-.7-.2-.9-.2-1.6-.2h-.9v-1.6h14.1v1.6h-1.2c-.7 0-1.4-.2-1.9.5-.2.2-.2.5-.2.7v16.2c0 .5 0 1.2.7 1.4h2.8v1.6c-.1-.1-14.4-.1-14.4-.1z"/></g></g><g id="Bird"><path class="st3" d="M173.6 291.3c-3.1.6-3.4 2.4-3.3 4.8 0 2.4-1.1 3.9.8 5.9 1.9 2 2.8 1.6 2.4 3.5s-1.2 3.1-.5 3.8.7 1.9-.1 2.8c-.9 1-.5.9-1.6.7-1.1-.2-1.2-1.2-1-2.8s-1-1.8-2-2.2c-1-.3-1.2-1.2-.9-2.3s-1.9-5.5-1.7-8.5-.2-6.4-4.1-7.7c-3.1-1-13.2-11.7-18.4-15.4-5.2-3.8-23.5-15.9-27.8-26.7-5-12.7-1.4-20.1-2.2-22.1-.8-1.9-2.2-6.5-5.3-7.5-3.2-1-1.8-1.3-3.2-1.3s-4.6.7-6.2.1c-1.7-.6-2.7-2.1-5.4-2.8-2.6-.6-3.7-1-5.2-.8s-6.2.2-9 .9-6 .2-7.8-1.1-3.8-2.5-3.4-5.2c0 0 2.3.2 3.3 0s6.2-1.6 7.9-1.8c1.7-.2 2.8-1.6 3.6-3 .8-1.4 3.2-5.8 4.9-7.2 1.8-1.4 4.8-3.6 7.6-4 2.8-.4 8.1-.8 10.2 0s2.8 1.4 4.9 2.8c2.1 1.3 5.8 4.7 7.7 7.8 1.9 3.2 6.8 11.4 7.9 14s2.1 5.7 4.2 6.8c2.1 1.1 4.2 3.2 6.2 3.5 2.1.3 3.8 1.1 5.7.5s4.2-.9 5.2-3.6 1.8-6.3 1-8.4-2.2-4.1-2.3-7.7c-.1-3.6 1.2-7.2 3.1-11.8 1.9-4.7 8.2-14.1 10.5-17.2 2.2-3.1 12.2-15.8 14.5-16.5s2.2-.4 2.5 0 1.2 2 0 3.6-2.3 4.2-1.2 5.2c1.2 1.1 1.9-2.9 2.8-3.8.9-.9 3.3-3.2 4.3-3.2 1-.1 2.4-.4 2.5.2.1.7.1 3.2-1.2 4.2s-1.9 3.4-1.3 3.8c.6.4 1.5.3 2.6-.8 1.1-1.2 1.6-1.3 2.5-1.2s2.2 1.1 1.8 2.4c-.5 1.3-3.4 5.2-2.2 5.8s1.8-.5 3.2-.6c1.3-.1 2.4 1.2 1.4 2.5s-1.6 3.5-.7 3.8c.9.2 2.5-1.5 2.8-.2.3 1.2.7 4.2 0 4.5-.7.2-1.9 2-.8 2.4 1.1.4 3.4.7 2.2 1.6-1.2.9-1.5 1.8-1.4 2 .2.2-.1.8-.5.9-.3.1-.7 1.8-.3 1.9.4.1 1 .3 1.2 0 .3-.3.8-.1.8.3 0 .5.6 3.4-.2 3.3s-1.4 2.4-1 2.7c.4.4 1.2-.1 1.7.4s-.3 2.3.2 2.8.8.6 1.4-.4c.6-1 3.8-6 7.1-9.6 3.3-3.7 5.2-6.3 9.8-8.7 4.5-2.3 7-3 9.5-4.7s11.2-8 13.1-9.7c1.9-1.7 14.7-13.3 16.6-15.2s7.2-6.7 9.1-9c1.8-2.3 6.5-8.1 7.1-9.2.6-1 1.4-2.7 1.8-2.7s1.1.7.7 1.9-2.8 4.2-2.6 4.7c.1.4 1 .5 1.5-.2s1.5-3.2 1.8-3 .5 2.7 0 3.5-2.8 3-2.9 4.2c0 1.3.5 3.2 0 4.1-.4.9-2.1 3.4-3.1 4.6-1 1.2-.5 3.7-1 4.2s-4.5 3.7-4.8 4.9 1.2 1.8.3 2.9c-.8 1.2-6.2 6.9-6.2 8.1s.8 3.9-.4 5-2.4 1.2-3.1 3.3c-.7 2.2-3.4 5.2-4.6 5.9-1.2.7-2.4 1.1-1.8 2 .6.9 1.8 2 .7 2.9s-3.3.4-3.8 2.2-.6 4.5-1.5 6-3.8 6.2-6.9 10.8c-3.2 4.6-11.7 15.1-15 19.1s-6.2 6.6-6.5 8.8c-.2 2.2.5 7.8-.2 7.9s-3.5-.9-4.4 0 .5 4.7-.6 4.7-4.6-2.4-8.3-2.4-10.2-.2-9.9 2.4 1.2 1.3 3.4 3.2 3.6 2.4 4.5 4.7 1.4 7.3 3.2 9.2c1.8 1.9 2.2 4.2 4.8 5.2s4.5 1 5.5 2.2-.3 2.6.7 3.5 2.6.7 2.5 1.9c-.1 1.2-.9 2.3-.6 4.1.3 1.8 1.1 1.8 1.2 2.9.1 1.2.8 5.2 0 5.8s-2.1 1.4-.7 1.8c1.4.3 2.6 2 1.7 3.1-.9 1.1-3.1 3.8-6.9 3.9-3.8.1-6.8.8-7.7 0s-2.6-1.4-4.5-.1-2.8.1-4.8-.6c-1.9-.7-3.8.8-6.8-.2-3-1.1-5.1-1.8-5.2-3.6s.5-1.6-1-2.7-2.5-.2-2.7-2.4c.2-1.9.8-6.6-1.4-6"/><path class="st4" d="M111.5 221.7l1.6 3.1s2.1-1.1 4.2-1.5c2.2-.5 5.9-.6 7.1-.6s4.6.2 4.6.2l-1.8-3.5s-3.6.2-6.9.6c-3.4.2-8.8 1.7-8.8 1.7z"/><ellipse class="st4" cx="90.5" cy="199.7" rx="1.7" ry="1.3"/></g></svg>